# MagicaVoxel @ Ephtracy

# material
mtllib HeroiLife.mtl
usemtl palette

# normals
vn -1 0 0
vn 1 0 0
vn 0 0 1
vn 0 0 -1
vn 0 -1 0
vn 0 1 0

# texcoords
vt 0.408203 0.5
vt 0.439453 0.5
vt 0.533203 0.5
vt 0.564453 0.5
vt 0.595703 0.5
vt 0.603516 0.5
vt 0.626953 0.5
vt 0.658203 0.5

# verts
v -2.5 2 -2
v -2.5 2 -3
v -2.5 4 1
v -2.5 4 -0
v -2.5 5 1
v -2.5 5 -0
v -2.5 6 -1
v -2.5 6 -2
v -2.5 7 2
v -2.5 7 1
v -2.5 7 -0
v -2.5 7 -1
v -2.5 7 -2
v -2.5 7 -3
v -2.5 8 2
v -2.5 8 -2
v -1.5 0 2
v -1.5 0 -0
v -1.5 1 2
v -1.5 1 1
v -1.5 3 2
v -1.5 3 1
v -1.5 3 -0
v -1.5 3 -1
v -1.5 4 2
v -1.5 4 1
v -1.5 4 -0
v -1.5 4 -1
v -1.5 5 1
v -1.5 5 -0
v -1.5 6 -1
v -1.5 7 2
v -1.5 7 1
v -1.5 7 -0
v -1.5 7 -1
v -1.5 8 2
v -1.5 8 -1
v -1.5 9 -0
v -1.5 9 -1
v -1.5 10 2
v -1.5 10 1
v -1.5 10 -0
v -1.5 10 -1
v -1.5 11 2
v -1.5 11 1
v -1.5 11 -1
v -1.5 12 -0
v -1.5 12 -1
v -1.5 13 3
v -1.5 13 2
v -1.5 13 1
v -1.5 13 -0
v -1.5 14 3
v -1.5 14 1
v -0.5 2 2
v -0.5 2 1
v -0.5 3 2
v -0.5 3 1
v 0.5 0 2
v 0.5 0 -0
v 0.5 1 2
v 0.5 1 1
v 0.5 2 1
v 0.5 2 -0
v -0.5 0 2
v -0.5 0 -0
v -0.5 1 2
v -0.5 1 1
v -0.5 2 1
v -0.5 2 -0
v -0.5 12 1
v -0.5 12 -0
v -0.5 13 3
v -0.5 13 2
v -0.5 13 1
v -0.5 13 -0
v -0.5 14 3
v -0.5 14 1
v 0.5 2 2
v 0.5 2 1
v 0.5 3 2
v 0.5 3 1
v 0.5 12 2
v 0.5 12 1
v 0.5 13 2
v 0.5 13 1
v 1.5 0 2
v 1.5 0 -0
v 1.5 1 2
v 1.5 1 1
v 1.5 3 2
v 1.5 3 1
v 1.5 3 -0
v 1.5 3 -1
v 1.5 4 2
v 1.5 4 1
v 1.5 4 -0
v 1.5 4 -1
v 1.5 5 1
v 1.5 5 -0
v 1.5 6 -1
v 1.5 7 2
v 1.5 7 1
v 1.5 7 -0
v 1.5 7 -1
v 1.5 8 2
v 1.5 8 -1
v 1.5 9 -0
v 1.5 9 -1
v 1.5 10 2
v 1.5 10 1
v 1.5 10 -0
v 1.5 10 -1
v 1.5 11 2
v 1.5 11 1
v 1.5 11 -1
v 1.5 12 2
v 1.5 12 -1
v 2.5 2 -2
v 2.5 2 -3
v 2.5 4 1
v 2.5 4 -0
v 2.5 5 1
v 2.5 5 -0
v 2.5 6 -1
v 2.5 6 -2
v 2.5 7 2
v 2.5 7 1
v 2.5 7 -0
v 2.5 7 -1
v 2.5 7 -2
v 2.5 7 -3
v 2.5 8 2
v 2.5 8 -2
v -1.5 13 3
v -1.5 14 3
v -0.5 13 3
v -0.5 14 3
v -2.5 7 2
v -2.5 8 2
v -1.5 0 2
v -1.5 1 2
v -1.5 3 2
v -1.5 4 2
v -1.5 7 2
v -1.5 8 2
v -1.5 10 2
v -1.5 11 2
v -1.5 13 2
v -0.5 0 2
v -0.5 1 2
v -0.5 2 2
v -0.5 3 2
v -0.5 7 2
v -0.5 8 2
v -0.5 10 2
v -0.5 11 2
v -0.5 13 2
v 0.5 0 2
v 0.5 1 2
v 0.5 2 2
v 0.5 3 2
v 0.5 7 2
v 0.5 8 2
v 0.5 10 2
v 0.5 11 2
v 0.5 12 2
v 0.5 13 2
v 1.5 0 2
v 1.5 1 2
v 1.5 3 2
v 1.5 4 2
v 1.5 7 2
v 1.5 8 2
v 1.5 10 2
v 1.5 11 2
v 1.5 12 2
v 2.5 7 2
v 2.5 8 2
v -2.5 4 1
v -2.5 5 1
v -2.5 7 1
v -1.5 1 1
v -1.5 3 1
v -1.5 4 1
v -1.5 5 1
v -1.5 7 1
v -0.5 1 1
v -0.5 2 1
v -0.5 3 1
v 0.5 1 1
v 0.5 2 1
v 0.5 3 1
v 1.5 1 1
v 1.5 3 1
v 1.5 4 1
v 1.5 5 1
v 1.5 7 1
v 2.5 4 1
v 2.5 5 1
v 2.5 7 1
v -2.5 6 -1
v -2.5 7 -1
v -1.5 6 -1
v -1.5 7 -1
v 1.5 6 -1
v 1.5 7 -1
v 2.5 6 -1
v 2.5 7 -1
v -2.5 2 -2
v -2.5 6 -2
v 2.5 2 -2
v 2.5 6 -2
v -1.5 13 1
v -1.5 14 1
v -0.5 12 1
v -0.5 13 1
v -0.5 14 1
v 0.5 12 1
v 0.5 13 1
v -2.5 4 -0
v -2.5 5 -0
v -2.5 7 -0
v -1.5 0 -0
v -1.5 3 -0
v -1.5 4 -0
v -1.5 5 -0
v -1.5 7 -0
v -1.5 12 -0
v -1.5 13 -0
v -0.5 0 -0
v -0.5 2 -0
v -0.5 3 -0
v -0.5 12 -0
v -0.5 13 -0
v 0.5 0 -0
v 0.5 2 -0
v 0.5 3 -0
v 1.5 0 -0
v 1.5 3 -0
v 1.5 4 -0
v 1.5 5 -0
v 1.5 7 -0
v 2.5 4 -0
v 2.5 5 -0
v 2.5 7 -0
v -1.5 3 -1
v -1.5 4 -1
v -1.5 6 -1
v -1.5 8 -1
v -1.5 9 -1
v -1.5 10 -1
v -1.5 11 -1
v -1.5 12 -1
v 1.5 3 -1
v 1.5 4 -1
v 1.5 6 -1
v 1.5 8 -1
v 1.5 9 -1
v 1.5 10 -1
v 1.5 11 -1
v 1.5 12 -1
v -2.5 7 -2
v -2.5 8 -2
v 2.5 7 -2
v 2.5 8 -2
v -2.5 2 -3
v -2.5 7 -3
v 2.5 2 -3
v 2.5 7 -3
v -1.5 0 2
v -0.5 0 2
v 0.5 0 2
v 1.5 0 2
v -1.5 0 -0
v -0.5 0 -0
v 0.5 0 -0
v 1.5 0 -0
v -0.5 2 2
v 0.5 2 2
v -0.5 2 1
v 0.5 2 1
v -0.5 2 -0
v 0.5 2 -0
v -2.5 2 -2
v 2.5 2 -2
v -2.5 2 -3
v 2.5 2 -3
v -1.5 3 2
v -0.5 3 2
v 0.5 3 2
v 1.5 3 2
v -1.5 3 1
v -0.5 3 1
v 0.5 3 1
v 1.5 3 1
v -1.5 3 -0
v -0.5 3 -0
v 0.5 3 -0
v 1.5 3 -0
v -1.5 3 -1
v 1.5 3 -1
v -2.5 4 1
v -1.5 4 1
v 1.5 4 1
v 2.5 4 1
v -2.5 4 -0
v -1.5 4 -0
v 1.5 4 -0
v 2.5 4 -0
v -2.5 6 -1
v -1.5 6 -1
v 1.5 6 -1
v 2.5 6 -1
v -2.5 6 -2
v 2.5 6 -2
v -2.5 7 2
v -1.5 7 2
v 1.5 7 2
v 2.5 7 2
v -2.5 7 1
v -1.5 7 1
v 1.5 7 1
v 2.5 7 1
v -2.5 7 -0
v -1.5 7 -0
v 1.5 7 -0
v 2.5 7 -0
v -2.5 7 -1
v -1.5 7 -1
v 1.5 7 -1
v 2.5 7 -1
v -1.5 13 3
v -0.5 13 3
v -1.5 13 2
v -0.5 13 2
v -1.5 1 2
v -0.5 1 2
v 0.5 1 2
v 1.5 1 2
v -1.5 1 1
v -0.5 1 1
v 0.5 1 1
v 1.5 1 1
v -2.5 7 -2
v 2.5 7 -2
v -2.5 7 -3
v 2.5 7 -3
v -2.5 8 2
v -1.5 8 2
v 1.5 8 2
v 2.5 8 2
v -1.5 8 -1
v 1.5 8 -1
v -2.5 8 -2
v 2.5 8 -2
v 0.5 12 2
v 1.5 12 2
v -0.5 12 1
v 0.5 12 1
v -1.5 12 -0
v -0.5 12 -0
v -1.5 12 -1
v 1.5 12 -1
v -0.5 13 2
v 0.5 13 2
v -1.5 13 1
v -0.5 13 1
v 0.5 13 1
v -1.5 13 -0
v -0.5 13 -0
v -1.5 14 3
v -0.5 14 3
v -1.5 14 1
v -0.5 14 1

# faces
f 5/4/1 4/4/1 3/4/1
f 6/4/1 4/4/1 5/4/1
f 8/1/1 2/1/1 1/1/1
f 10/2/1 6/2/1 5/2/1
f 11/2/1 6/2/1 10/2/1
f 12/1/1 8/1/1 7/1/1
f 13/1/1 2/1/1 8/1/1
f 13/1/1 8/1/1 12/1/1
f 14/1/1 2/1/1 13/1/1
f 15/1/1 11/1/1 10/1/1
f 15/1/1 12/1/1 11/1/1
f 15/1/1 13/1/1 12/1/1
f 15/1/1 10/1/1 9/1/1
f 16/1/1 13/1/1 15/1/1
f 19/2/1 18/2/1 17/2/1
f 20/2/1 18/2/1 19/2/1
f 22/2/1 18/2/1 20/2/1
f 23/2/1 18/2/1 22/2/1
f 25/1/1 22/1/1 21/1/1
f 25/1/1 24/1/1 23/1/1
f 25/1/1 23/1/1 22/1/1
f 26/1/1 24/1/1 25/1/1
f 27/1/1 24/1/1 26/1/1
f 28/1/1 24/1/1 27/1/1
f 29/2/1 26/2/1 25/2/1
f 30/2/1 28/2/1 27/2/1
f 31/2/1 28/2/1 30/2/1
f 32/2/1 29/2/1 25/2/1
f 33/2/1 29/2/1 32/2/1
f 34/2/1 31/2/1 30/2/1
f 35/2/1 31/2/1 34/2/1
f 38/8/1 37/8/1 36/8/1
f 39/8/1 37/8/1 38/8/1
f 40/8/1 38/8/1 36/8/1
f 41/8/1 38/8/1 40/8/1
f 42/6/1 39/6/1 38/6/1
f 42/8/1 38/8/1 41/8/1
f 43/6/1 39/6/1 42/6/1
f 44/3/1 41/3/1 40/3/1
f 45/1/1 42/1/1 41/1/1
f 45/3/1 41/3/1 44/3/1
f 45/1/1 43/1/1 42/1/1
f 46/1/1 43/1/1 45/1/1
f 47/6/1 45/6/1 44/6/1
f 47/6/1 46/6/1 45/6/1
f 48/6/1 46/6/1 47/6/1
f 50/6/1 47/6/1 44/6/1
f 51/6/1 47/6/1 50/6/1
f 52/6/1 47/6/1 51/6/1
f 53/6/1 50/6/1 49/6/1
f 53/6/1 51/6/1 50/6/1
f 54/6/1 51/6/1 53/6/1
f 57/1/1 56/1/1 55/1/1
f 58/1/1 56/1/1 57/1/1
f 61/2/1 60/2/1 59/2/1
f 62/2/1 60/2/1 61/2/1
f 63/2/1 60/2/1 62/2/1
f 64/2/1 60/2/1 63/2/1
f 65/2/2 66/2/2 67/2/2
f 67/2/2 66/2/2 68/2/2
f 68/2/2 66/2/2 69/2/2
f 69/2/2 66/2/2 70/2/2
f 71/6/2 72/6/2 75/6/2
f 75/6/2 72/6/2 76/6/2
f 73/6/2 74/6/2 77/6/2
f 74/6/2 75/6/2 77/6/2
f 77/6/2 75/6/2 78/6/2
f 79/1/2 80/1/2 81/1/2
f 81/1/2 80/1/2 82/1/2
f 83/6/2 84/6/2 85/6/2
f 85/6/2 84/6/2 86/6/2
f 87/2/2 88/2/2 89/2/2
f 89/2/2 88/2/2 90/2/2
f 90/2/2 88/2/2 92/2/2
f 92/2/2 88/2/2 93/2/2
f 91/1/2 92/1/2 95/1/2
f 93/1/2 94/1/2 95/1/2
f 92/1/2 93/1/2 95/1/2
f 95/1/2 94/1/2 96/1/2
f 96/1/2 94/1/2 97/1/2
f 97/1/2 94/1/2 98/1/2
f 95/2/2 96/2/2 99/2/2
f 97/2/2 98/2/2 100/2/2
f 100/2/2 98/2/2 101/2/2
f 95/2/2 99/2/2 102/2/2
f 102/2/2 99/2/2 103/2/2
f 100/2/2 101/2/2 104/2/2
f 104/2/2 101/2/2 105/2/2
f 106/8/2 107/8/2 108/8/2
f 108/8/2 107/8/2 109/8/2
f 106/8/2 108/8/2 110/8/2
f 110/8/2 108/8/2 111/8/2
f 108/6/2 109/6/2 112/6/2
f 111/8/2 108/8/2 112/8/2
f 112/6/2 109/6/2 113/6/2
f 110/3/2 111/3/2 114/3/2
f 111/1/2 112/1/2 115/1/2
f 114/3/2 111/3/2 115/3/2
f 112/1/2 113/1/2 115/1/2
f 115/1/2 113/1/2 116/1/2
f 114/6/2 115/6/2 117/6/2
f 115/6/2 116/6/2 117/6/2
f 117/6/2 116/6/2 118/6/2
f 121/4/2 122/4/2 123/4/2
f 123/4/2 122/4/2 124/4/2
f 119/1/2 120/1/2 126/1/2
f 123/2/2 124/2/2 128/2/2
f 128/2/2 124/2/2 129/2/2
f 125/1/2 126/1/2 130/1/2
f 126/1/2 120/1/2 131/1/2
f 130/1/2 126/1/2 131/1/2
f 131/1/2 120/1/2 132/1/2
f 128/1/2 129/1/2 133/1/2
f 129/1/2 130/1/2 133/1/2
f 130/1/2 131/1/2 133/1/2
f 127/1/2 128/1/2 133/1/2
f 133/1/2 131/1/2 134/1/2
f 137/6/3 136/6/3 135/6/3
f 138/6/3 136/6/3 137/6/3
f 145/1/3 140/1/3 139/1/3
f 146/1/3 140/1/3 145/1/3
f 150/2/3 142/2/3 141/2/3
f 151/2/3 142/2/3 150/2/3
f 153/1/3 144/1/3 143/1/3
f 154/2/3 145/2/3 144/2/3
f 154/1/3 146/1/3 145/1/3
f 155/8/3 147/8/3 146/8/3
f 155/1/3 146/1/3 154/1/3
f 156/3/3 148/3/3 147/3/3
f 156/8/3 147/8/3 155/8/3
f 157/6/3 149/6/3 148/6/3
f 157/3/3 148/3/3 156/3/3
f 158/6/3 149/6/3 157/6/3
f 161/1/3 153/1/3 152/1/3
f 162/1/3 144/1/3 153/1/3
f 162/1/3 153/1/3 161/1/3
f 163/8/3 156/8/3 155/8/3
f 163/2/3 154/2/3 144/2/3
f 163/8/3 155/8/3 154/8/3
f 164/8/3 156/8/3 163/8/3
f 165/1/3 157/1/3 156/1/3
f 165/8/3 156/8/3 164/8/3
f 166/6/3 158/6/3 157/6/3
f 166/1/3 157/1/3 165/1/3
f 167/6/3 158/6/3 166/6/3
f 168/6/3 158/6/3 167/6/3
f 169/2/3 160/2/3 159/2/3
f 170/2/3 160/2/3 169/2/3
f 171/1/3 144/1/3 162/1/3
f 172/2/3 163/2/3 144/2/3
f 172/1/3 144/1/3 171/1/3
f 173/1/3 164/1/3 163/1/3
f 173/2/3 163/2/3 172/2/3
f 174/8/3 165/8/3 164/8/3
f 174/1/3 164/1/3 173/1/3
f 175/3/3 166/3/3 165/3/3
f 175/8/3 165/8/3 174/8/3
f 176/6/3 167/6/3 166/6/3
f 176/3/3 166/3/3 175/3/3
f 177/6/3 167/6/3 176/6/3
f 178/1/3 174/1/3 173/1/3
f 179/1/3 174/1/3 178/1/3
f 185/4/3 181/4/3 180/4/3
f 186/2/3 182/2/3 181/2/3
f 186/4/3 181/4/3 185/4/3
f 187/2/3 182/2/3 186/2/3
f 188/2/3 184/2/3 183/2/3
f 189/2/3 184/2/3 188/2/3
f 190/2/3 184/2/3 189/2/3
f 194/2/3 192/2/3 191/2/3
f 194/2/3 193/2/3 192/2/3
f 195/2/3 193/2/3 194/2/3
f 199/4/3 197/4/3 196/4/3
f 200/2/3 198/2/3 197/2/3
f 200/4/3 197/4/3 199/4/3
f 201/2/3 198/2/3 200/2/3
f 204/1/3 203/1/3 202/1/3
f 205/1/3 203/1/3 204/1/3
f 208/1/3 207/1/3 206/1/3
f 209/1/3 207/1/3 208/1/3
f 212/1/3 211/1/3 210/1/3
f 213/1/3 211/1/3 212/1/3
f 214/6/4 215/6/4 217/6/4
f 217/6/4 215/6/4 218/6/4
f 216/6/4 217/6/4 219/6/4
f 219/6/4 217/6/4 220/6/4
f 221/4/4 222/4/4 226/4/4
f 222/2/4 223/2/4 227/2/4
f 226/4/4 222/4/4 227/4/4
f 227/2/4 223/2/4 228/2/4
f 224/2/4 225/2/4 231/2/4
f 231/2/4 225/2/4 232/2/4
f 232/2/4 225/2/4 233/2/4
f 229/6/4 230/6/4 234/6/4
f 234/6/4 230/6/4 235/6/4
f 232/1/4 233/1/4 237/1/4
f 237/1/4 233/1/4 238/1/4
f 236/2/4 237/2/4 239/2/4
f 237/2/4 238/2/4 239/2/4
f 239/2/4 238/2/4 240/2/4
f 241/4/4 242/4/4 244/4/4
f 242/2/4 243/2/4 245/2/4
f 244/4/4 242/4/4 245/4/4
f 245/2/4 243/2/4 246/2/4
f 247/1/4 248/1/4 255/1/4
f 248/2/4 249/2/4 256/2/4
f 255/1/4 248/1/4 256/1/4
f 256/2/4 249/2/4 257/2/4
f 250/8/4 251/8/4 258/8/4
f 251/6/4 252/6/4 259/6/4
f 258/8/4 251/8/4 259/8/4
f 252/1/4 253/1/4 260/1/4
f 259/6/4 252/6/4 260/6/4
f 253/6/4 254/6/4 261/6/4
f 260/1/4 253/1/4 261/1/4
f 261/6/4 254/6/4 262/6/4
f 263/1/4 264/1/4 265/1/4
f 265/1/4 264/1/4 266/1/4
f 267/1/4 268/1/4 269/1/4
f 269/1/4 268/1/4 270/1/4
f 275/2/5 272/2/5 271/2/5
f 276/2/5 272/2/5 275/2/5
f 277/2/5 274/2/5 273/2/5
f 278/2/5 274/2/5 277/2/5
f 281/1/5 280/1/5 279/1/5
f 282/1/5 280/1/5 281/1/5
f 283/1/5 282/1/5 281/1/5
f 284/1/5 282/1/5 283/1/5
f 287/1/5 286/1/5 285/1/5
f 288/1/5 286/1/5 287/1/5
f 293/1/5 290/1/5 289/1/5
f 294/1/5 290/1/5 293/1/5
f 295/1/5 292/1/5 291/1/5
f 296/1/5 292/1/5 295/1/5
f 301/1/5 298/1/5 297/1/5
f 301/1/5 300/1/5 299/1/5
f 301/1/5 299/1/5 298/1/5
f 302/1/5 300/1/5 301/1/5
f 307/4/5 304/4/5 303/4/5
f 308/4/5 304/4/5 307/4/5
f 309/4/5 306/4/5 305/4/5
f 310/4/5 306/4/5 309/4/5
f 315/1/5 312/1/5 311/1/5
f 315/1/5 314/1/5 313/1/5
f 315/1/5 313/1/5 312/1/5
f 316/1/5 314/1/5 315/1/5
f 321/1/5 318/1/5 317/1/5
f 322/1/5 318/1/5 321/1/5
f 323/1/5 320/1/5 319/1/5
f 324/1/5 320/1/5 323/1/5
f 329/1/5 326/1/5 325/1/5
f 330/1/5 326/1/5 329/1/5
f 331/1/5 328/1/5 327/1/5
f 332/1/5 328/1/5 331/1/5
f 335/6/5 334/6/5 333/6/5
f 336/6/5 334/6/5 335/6/5
f 337/2/6 338/2/6 341/2/6
f 341/2/6 338/2/6 342/2/6
f 339/2/6 340/2/6 343/2/6
f 343/2/6 340/2/6 344/2/6
f 345/1/6 346/1/6 347/1/6
f 347/1/6 346/1/6 348/1/6
f 349/1/6 350/1/6 353/1/6
f 351/1/6 352/1/6 354/1/6
f 349/1/6 353/1/6 355/1/6
f 353/1/6 354/1/6 355/1/6
f 354/1/6 352/1/6 356/1/6
f 355/1/6 354/1/6 356/1/6
f 357/6/6 358/6/6 360/6/6
f 359/6/6 360/6/6 362/6/6
f 361/6/6 362/6/6 363/6/6
f 360/6/6 358/6/6 364/6/6
f 363/6/6 362/6/6 364/6/6
f 362/6/6 360/6/6 364/6/6
f 365/6/6 366/6/6 368/6/6
f 368/6/6 366/6/6 369/6/6
f 367/6/6 368/6/6 370/6/6
f 370/6/6 368/6/6 371/6/6
f 372/6/6 373/6/6 374/6/6
f 374/6/6 373/6/6 375/6/6
