# MagicaVoxel @ Ephtracy

# material
mtllib HeroSingle-00.mtl
usemtl palette

# normals
vn -1 0 0
vn 1 0 0
vn 0 0 1
vn 0 0 -1
vn 0 -1 0
vn 0 1 0

# texcoords
vt 0.408203 0.5
vt 0.439453 0.5
vt 0.533203 0.5
vt 0.564453 0.5
vt 0.595703 0.5
vt 0.603516 0.5
vt 0.626953 0.5
vt 0.658203 0.5

# verts
v -2.5 0 2
v -2.5 0 1
v -2.5 0 -0
v -2.5 1 2
v -2.5 1 1
v -2.5 2 1
v -2.5 2 -0
v -2.5 3 1
v -2.5 3 -0
v -2.5 3 -2
v -2.5 3 -3
v -2.5 4 2
v -2.5 4 1
v -2.5 4 -1
v -2.5 4 -2
v -2.5 4 -3
v -2.5 4 -4
v -2.5 5 1
v -2.5 5 -0
v -2.5 5 -1
v -2.5 5 -2
v -2.5 5 -3
v -2.5 5 -4
v -2.5 6 -0
v -2.5 6 -1
v -1.5 0 5
v -1.5 0 2
v -1.5 0 -0
v -1.5 0 -2
v -1.5 0 -3
v -1.5 0 -5
v -1.5 0 -6
v -1.5 1 3
v -1.5 1 2
v -1.5 1 -3
v -1.5 1 -5
v -1.5 2 5
v -1.5 2 4
v -1.5 2 3
v -1.5 2 2
v -1.5 2 1
v -1.5 2 -0
v -1.5 2 -3
v -1.5 2 -6
v -1.5 3 5
v -1.5 3 4
v -1.5 3 2
v -1.5 3 1
v -1.5 3 -0
v -1.5 3 -2
v -1.5 3 -3
v -1.5 4 3
v -1.5 4 2
v -1.5 5 6
v -1.5 5 5
v -1.5 5 4
v -1.5 5 3
v -1.5 6 6
v -1.5 6 4
v -0.5 0 -3
v -0.5 0 -4
v -0.5 1 -3
v -0.5 1 -4
v 0.5 0 -5
v 0.5 0 -6
v 0.5 1 -4
v 0.5 1 -5
v 0.5 2 -4
v 0.5 2 -6
v -0.5 0 -5
v -0.5 0 -6
v -0.5 1 -4
v -0.5 1 -5
v -0.5 2 -4
v -0.5 2 -6
v -0.5 4 4
v -0.5 4 3
v -0.5 5 6
v -0.5 5 5
v -0.5 5 4
v -0.5 5 3
v -0.5 6 6
v -0.5 6 4
v 0.5 0 -3
v 0.5 0 -4
v 0.5 1 -3
v 0.5 1 -4
v 0.5 4 5
v 0.5 4 4
v 0.5 5 5
v 0.5 5 4
v 1.5 0 5
v 1.5 0 2
v 1.5 0 1
v 1.5 0 -2
v 1.5 0 -3
v 1.5 0 -5
v 1.5 0 -6
v 1.5 1 3
v 1.5 1 2
v 1.5 1 1
v 1.5 1 -0
v 1.5 1 -3
v 1.5 1 -5
v 1.5 2 5
v 1.5 2 4
v 1.5 2 3
v 1.5 2 2
v 1.5 2 1
v 1.5 2 -0
v 1.5 2 -3
v 1.5 2 -6
v 1.5 3 5
v 1.5 3 4
v 1.5 3 2
v 1.5 3 1
v 1.5 3 -0
v 1.5 3 -2
v 1.5 3 -3
v 1.5 4 5
v 1.5 4 2
v 2.5 0 2
v 2.5 0 1
v 2.5 1 3
v 2.5 1 2
v 2.5 1 1
v 2.5 1 -0
v 2.5 2 3
v 2.5 2 2
v 2.5 2 1
v 2.5 2 -0
v 2.5 3 1
v 2.5 3 -0
v 2.5 3 -2
v 2.5 3 -3
v 2.5 4 2
v 2.5 4 1
v 2.5 4 -1
v 2.5 4 -2
v 2.5 4 -3
v 2.5 4 -4
v 2.5 5 1
v 2.5 5 -0
v 2.5 5 -1
v 2.5 5 -2
v 2.5 5 -3
v 2.5 5 -4
v 2.5 6 -0
v 2.5 6 -1
v -1.5 5 6
v -1.5 6 6
v -0.5 5 6
v -0.5 6 6
v -1.5 0 5
v -1.5 2 5
v -1.5 3 5
v -1.5 5 5
v -0.5 2 5
v -0.5 3 5
v -0.5 5 5
v 0.5 2 5
v 0.5 3 5
v 0.5 4 5
v 0.5 5 5
v 1.5 0 5
v 1.5 2 5
v 1.5 3 5
v 1.5 4 5
v 1.5 1 3
v 1.5 2 3
v 2.5 1 3
v 2.5 2 3
v -2.5 0 2
v -2.5 1 2
v -2.5 4 2
v -1.5 0 2
v -1.5 1 2
v -1.5 2 2
v -1.5 3 2
v -1.5 4 2
v 1.5 0 2
v 1.5 1 2
v 1.5 2 2
v 1.5 3 2
v 1.5 4 2
v 2.5 0 2
v 2.5 1 2
v 2.5 2 2
v 2.5 4 2
v -2.5 4 1
v -2.5 5 1
v 2.5 4 1
v 2.5 5 1
v -2.5 5 -0
v -2.5 6 -0
v 2.5 5 -0
v 2.5 6 -0
v -2.5 4 -1
v -2.5 5 -1
v 2.5 4 -1
v 2.5 5 -1
v -2.5 3 -2
v -2.5 4 -2
v -1.5 3 -2
v 1.5 3 -2
v 2.5 3 -2
v 2.5 4 -2
v -2.5 4 -3
v -2.5 5 -3
v 2.5 4 -3
v 2.5 5 -3
v -1.5 0 -5
v -1.5 1 -5
v -0.5 0 -5
v -0.5 1 -5
v 0.5 0 -5
v 0.5 1 -5
v 1.5 0 -5
v 1.5 1 -5
v -1.5 5 4
v -1.5 6 4
v -0.5 4 4
v -0.5 5 4
v -0.5 6 4
v 0.5 4 4
v 0.5 5 4
v -1.5 4 3
v -1.5 5 3
v -0.5 4 3
v -0.5 5 3
v -2.5 2 1
v -2.5 3 1
v -1.5 2 1
v -1.5 3 1
v 1.5 0 1
v 1.5 1 1
v 1.5 2 1
v 1.5 3 1
v 2.5 0 1
v 2.5 1 1
v 2.5 2 1
v 2.5 3 1
v -2.5 0 -0
v -2.5 2 -0
v -2.5 3 -0
v -2.5 5 -0
v -1.5 0 -0
v -1.5 2 -0
v -1.5 3 -0
v 1.5 1 -0
v 1.5 2 -0
v 1.5 3 -0
v 2.5 1 -0
v 2.5 2 -0
v 2.5 3 -0
v 2.5 5 -0
v -2.5 5 -1
v -2.5 6 -1
v 2.5 5 -1
v 2.5 6 -1
v -2.5 4 -2
v -2.5 5 -2
v 2.5 4 -2
v 2.5 5 -2
v -2.5 3 -3
v -2.5 4 -3
v -1.5 0 -3
v -1.5 1 -3
v -1.5 2 -3
v -1.5 3 -3
v -0.5 0 -3
v -0.5 1 -3
v -0.5 2 -3
v 0.5 0 -3
v 0.5 1 -3
v 0.5 2 -3
v 1.5 0 -3
v 1.5 1 -3
v 1.5 2 -3
v 1.5 3 -3
v 2.5 3 -3
v 2.5 4 -3
v -2.5 4 -4
v -2.5 5 -4
v -0.5 0 -4
v -0.5 1 -4
v -0.5 2 -4
v 0.5 0 -4
v 0.5 1 -4
v 0.5 2 -4
v 2.5 4 -4
v 2.5 5 -4
v -1.5 0 -6
v -1.5 2 -6
v -0.5 0 -6
v -0.5 2 -6
v 0.5 0 -6
v 0.5 2 -6
v 1.5 0 -6
v 1.5 2 -6
v -1.5 0 5
v 1.5 0 5
v -2.5 0 2
v -1.5 0 2
v -0.5 0 2
v 0.5 0 2
v 1.5 0 2
v 2.5 0 2
v -2.5 0 1
v -1.5 0 1
v -0.5 0 1
v 0.5 0 1
v 1.5 0 1
v 2.5 0 1
v -2.5 0 -0
v -1.5 0 -0
v -0.5 0 -0
v -1.5 0 -2
v -0.5 0 -2
v 0.5 0 -2
v 1.5 0 -2
v -1.5 0 -3
v -0.5 0 -3
v 0.5 0 -3
v 1.5 0 -3
v -0.5 0 -4
v 0.5 0 -4
v -1.5 0 -5
v -0.5 0 -5
v 0.5 0 -5
v 1.5 0 -5
v -1.5 0 -6
v -0.5 0 -6
v 0.5 0 -6
v 1.5 0 -6
v 1.5 1 3
v 2.5 1 3
v 1.5 1 2
v 2.5 1 2
v 1.5 1 1
v 2.5 1 1
v 1.5 1 -0
v 2.5 1 -0
v -1.5 1 -3
v -0.5 1 -3
v 0.5 1 -3
v 1.5 1 -3
v -0.5 1 -4
v 0.5 1 -4
v -1.5 1 -5
v -0.5 1 -5
v 0.5 1 -5
v 1.5 1 -5
v -2.5 3 1
v -1.5 3 1
v 1.5 3 1
v 2.5 3 1
v -2.5 3 -0
v -1.5 3 -0
v 1.5 3 -0
v 2.5 3 -0
v -2.5 3 -2
v -1.5 3 -2
v 1.5 3 -2
v 2.5 3 -2
v -2.5 3 -3
v -1.5 3 -3
v 1.5 3 -3
v 2.5 3 -3
v -2.5 4 -1
v 2.5 4 -1
v -2.5 4 -2
v 2.5 4 -2
v -2.5 4 -3
v 2.5 4 -3
v -2.5 4 -4
v 2.5 4 -4
v -1.5 5 6
v -0.5 5 6
v -1.5 5 5
v -0.5 5 5
v -2.5 5 -0
v 2.5 5 -0
v -2.5 5 -1
v 2.5 5 -1
v 1.5 2 3
v 2.5 2 3
v 1.5 2 2
v 2.5 2 2
v -2.5 2 1
v -1.5 2 1
v 1.5 2 1
v 2.5 2 1
v -2.5 2 -0
v -1.5 2 -0
v 1.5 2 -0
v 2.5 2 -0
v -1.5 2 -3
v -0.5 2 -3
v 0.5 2 -3
v 1.5 2 -3
v -0.5 2 -4
v 0.5 2 -4
v -1.5 2 -6
v -0.5 2 -6
v 0.5 2 -6
v 1.5 2 -6
v -1.5 3 -0
v 1.5 3 -0
v -1.5 3 -2
v 1.5 3 -2
v 0.5 4 5
v 1.5 4 5
v -0.5 4 4
v 0.5 4 4
v -1.5 4 3
v -0.5 4 3
v -2.5 4 2
v -1.5 4 2
v 1.5 4 2
v 2.5 4 2
v -2.5 4 1
v 2.5 4 1
v -2.5 4 -2
v 2.5 4 -2
v -2.5 4 -3
v 2.5 4 -3
v -0.5 5 5
v 0.5 5 5
v -1.5 5 4
v -0.5 5 4
v 0.5 5 4
v -1.5 5 3
v -0.5 5 3
v -2.5 5 1
v 2.5 5 1
v -2.5 5 -0
v 2.5 5 -0
v -2.5 5 -1
v 2.5 5 -1
v -2.5 5 -2
v 2.5 5 -2
v -2.5 5 -3
v 2.5 5 -3
v -2.5 5 -4
v 2.5 5 -4
v -1.5 6 6
v -0.5 6 6
v -1.5 6 4
v -0.5 6 4
v -2.5 6 -0
v 2.5 6 -0
v -2.5 6 -1
v 2.5 6 -1

# faces
f 4/4/1 2/4/1 1/4/1
f 5/2/1 3/2/1 2/2/1
f 5/4/1 2/4/1 4/4/1
f 6/1/1 5/1/1 4/1/1
f 6/2/1 3/2/1 5/2/1
f 7/2/1 3/2/1 6/2/1
f 8/1/1 6/1/1 4/1/1
f 12/1/1 9/1/1 8/1/1
f 12/1/1 8/1/1 4/1/1
f 13/1/1 9/1/1 12/1/1
f 15/1/1 11/1/1 10/1/1
f 16/1/1 11/1/1 15/1/1
f 18/1/1 9/1/1 13/1/1
f 19/1/1 9/1/1 18/1/1
f 20/1/1 15/1/1 14/1/1
f 21/1/1 15/1/1 20/1/1
f 22/1/1 17/1/1 16/1/1
f 23/1/1 17/1/1 22/1/1
f 24/1/1 20/1/1 19/1/1
f 25/1/1 20/1/1 24/1/1
f 33/8/1 27/8/1 26/8/1
f 34/8/1 27/8/1 33/8/1
f 35/1/1 30/1/1 29/1/1
f 36/2/1 32/2/1 31/2/1
f 37/8/1 33/8/1 26/8/1
f 38/8/1 33/8/1 37/8/1
f 39/6/1 34/6/1 33/6/1
f 39/8/1 33/8/1 38/8/1
f 40/6/1 34/6/1 39/6/1
f 42/2/1 29/2/1 28/2/1
f 43/1/1 35/1/1 29/1/1
f 43/2/1 36/2/1 35/2/1
f 44/2/1 32/2/1 36/2/1
f 44/2/1 36/2/1 43/2/1
f 45/3/1 38/3/1 37/3/1
f 46/1/1 40/1/1 39/1/1
f 46/3/1 38/3/1 45/3/1
f 46/1/1 39/1/1 38/1/1
f 47/1/1 40/1/1 46/1/1
f 48/2/1 42/2/1 41/2/1
f 49/2/1 29/2/1 42/2/1
f 49/2/1 42/2/1 48/2/1
f 50/1/1 43/1/1 29/1/1
f 50/2/1 29/2/1 49/2/1
f 51/1/1 43/1/1 50/1/1
f 52/6/1 47/6/1 46/6/1
f 52/6/1 46/6/1 45/6/1
f 53/6/1 47/6/1 52/6/1
f 55/6/1 52/6/1 45/6/1
f 56/6/1 52/6/1 55/6/1
f 57/6/1 52/6/1 56/6/1
f 58/6/1 55/6/1 54/6/1
f 58/6/1 56/6/1 55/6/1
f 59/6/1 56/6/1 58/6/1
f 62/1/1 61/1/1 60/1/1
f 63/1/1 61/1/1 62/1/1
f 67/2/1 65/2/1 64/2/1
f 68/2/1 67/2/1 66/2/1
f 69/2/1 65/2/1 67/2/1
f 69/2/1 67/2/1 68/2/1
f 70/2/2 71/2/2 73/2/2
f 72/2/2 73/2/2 74/2/2
f 73/2/2 71/2/2 75/2/2
f 74/2/2 73/2/2 75/2/2
f 76/6/2 77/6/2 80/6/2
f 80/6/2 77/6/2 81/6/2
f 78/6/2 79/6/2 82/6/2
f 79/6/2 80/6/2 82/6/2
f 82/6/2 80/6/2 83/6/2
f 84/1/2 85/1/2 86/1/2
f 86/1/2 85/1/2 87/1/2
f 88/6/2 89/6/2 90/6/2
f 90/6/2 89/6/2 91/6/2
f 92/8/2 93/8/2 99/8/2
f 99/8/2 93/8/2 100/8/2
f 94/2/2 95/2/2 101/2/2
f 101/2/2 95/2/2 102/2/2
f 95/1/2 96/1/2 103/1/2
f 97/2/2 98/2/2 104/2/2
f 92/8/2 99/8/2 105/8/2
f 105/8/2 99/8/2 106/8/2
f 106/8/2 99/8/2 107/8/2
f 102/2/2 95/2/2 110/2/2
f 95/1/2 103/1/2 111/1/2
f 103/2/2 104/2/2 111/2/2
f 104/2/2 98/2/2 112/2/2
f 111/2/2 104/2/2 112/2/2
f 105/3/2 106/3/2 113/3/2
f 107/1/2 108/1/2 114/1/2
f 113/3/2 106/3/2 114/3/2
f 106/1/2 107/1/2 114/1/2
f 114/1/2 108/1/2 115/1/2
f 109/2/2 110/2/2 116/2/2
f 110/2/2 95/2/2 117/2/2
f 116/2/2 110/2/2 117/2/2
f 95/1/2 111/1/2 118/1/2
f 117/2/2 95/2/2 118/2/2
f 118/1/2 111/1/2 119/1/2
f 114/6/2 115/6/2 120/6/2
f 113/6/2 114/6/2 120/6/2
f 120/6/2 115/6/2 121/6/2
f 122/1/2 123/1/2 125/1/2
f 125/1/2 123/1/2 126/1/2
f 124/4/2 125/4/2 128/4/2
f 126/2/2 127/2/2 129/2/2
f 128/4/2 125/4/2 129/4/2
f 125/2/2 126/2/2 129/2/2
f 129/2/2 127/2/2 130/2/2
f 130/2/2 127/2/2 131/2/2
f 129/1/2 130/1/2 132/1/2
f 132/1/2 133/1/2 136/1/2
f 129/1/2 132/1/2 136/1/2
f 136/1/2 133/1/2 137/1/2
f 134/1/2 135/1/2 139/1/2
f 139/1/2 135/1/2 140/1/2
f 137/1/2 133/1/2 142/1/2
f 142/1/2 133/1/2 143/1/2
f 138/1/2 139/1/2 144/1/2
f 144/1/2 139/1/2 145/1/2
f 140/1/2 141/1/2 146/1/2
f 146/1/2 141/1/2 147/1/2
f 143/1/2 144/1/2 148/1/2
f 148/1/2 144/1/2 149/1/2
f 152/6/3 151/6/3 150/6/3
f 153/6/3 151/6/3 152/6/3
f 158/8/3 155/8/3 154/8/3
f 158/3/3 156/3/3 155/3/3
f 159/6/3 157/6/3 156/6/3
f 159/3/3 156/3/3 158/3/3
f 160/6/3 157/6/3 159/6/3
f 161/8/3 158/8/3 154/8/3
f 161/1/3 159/1/3 158/1/3
f 162/6/3 160/6/3 159/6/3
f 162/1/3 159/1/3 161/1/3
f 163/6/3 160/6/3 162/6/3
f 164/6/3 160/6/3 163/6/3
f 165/8/3 161/8/3 154/8/3
f 166/3/3 162/3/3 161/3/3
f 166/8/3 161/8/3 165/8/3
f 167/6/3 163/6/3 162/6/3
f 167/3/3 162/3/3 166/3/3
f 168/6/3 163/6/3 167/6/3
f 171/4/3 170/4/3 169/4/3
f 172/4/3 170/4/3 171/4/3
f 176/4/3 174/4/3 173/4/3
f 177/1/3 175/1/3 174/1/3
f 177/4/3 174/4/3 176/4/3
f 178/1/3 175/1/3 177/1/3
f 179/1/3 175/1/3 178/1/3
f 180/1/3 175/1/3 179/1/3
f 186/1/3 182/1/3 181/1/3
f 187/1/3 182/1/3 186/1/3
f 188/1/3 185/1/3 184/1/3
f 188/1/3 184/1/3 183/1/3
f 189/1/3 185/1/3 188/1/3
f 192/1/3 191/1/3 190/1/3
f 193/1/3 191/1/3 192/1/3
f 196/1/3 195/1/3 194/1/3
f 197/1/3 195/1/3 196/1/3
f 200/1/3 199/1/3 198/1/3
f 201/1/3 199/1/3 200/1/3
f 204/1/3 203/1/3 202/1/3
f 205/1/3 203/1/3 204/1/3
f 206/1/3 203/1/3 205/1/3
f 207/1/3 203/1/3 206/1/3
f 210/1/3 209/1/3 208/1/3
f 211/1/3 209/1/3 210/1/3
f 214/2/3 213/2/3 212/2/3
f 215/2/3 213/2/3 214/2/3
f 218/2/3 217/2/3 216/2/3
f 219/2/3 217/2/3 218/2/3
f 220/6/4 221/6/4 223/6/4
f 223/6/4 221/6/4 224/6/4
f 222/6/4 223/6/4 225/6/4
f 225/6/4 223/6/4 226/6/4
f 227/6/4 228/6/4 229/6/4
f 229/6/4 228/6/4 230/6/4
f 231/1/4 232/1/4 233/1/4
f 233/1/4 232/1/4 234/1/4
f 235/1/4 236/1/4 239/1/4
f 239/1/4 236/1/4 240/1/4
f 237/1/4 238/1/4 241/1/4
f 241/1/4 238/1/4 242/1/4
f 243/2/4 244/2/4 247/2/4
f 247/2/4 244/2/4 248/2/4
f 245/1/4 246/1/4 249/1/4
f 249/1/4 246/1/4 252/1/4
f 250/2/4 251/2/4 253/2/4
f 253/2/4 251/2/4 254/2/4
f 252/1/4 246/1/4 255/1/4
f 255/1/4 246/1/4 256/1/4
f 257/1/4 258/1/4 259/1/4
f 259/1/4 258/1/4 260/1/4
f 261/1/4 262/1/4 263/1/4
f 263/1/4 262/1/4 264/1/4
f 265/1/4 266/1/4 270/1/4
f 267/1/4 268/1/4 271/1/4
f 271/1/4 268/1/4 272/1/4
f 269/1/4 270/1/4 273/1/4
f 273/1/4 270/1/4 276/1/4
f 274/1/4 275/1/4 277/1/4
f 277/1/4 275/1/4 278/1/4
f 276/1/4 270/1/4 279/1/4
f 270/1/4 266/1/4 280/1/4
f 279/1/4 270/1/4 280/1/4
f 280/1/4 266/1/4 281/1/4
f 281/1/4 266/1/4 282/1/4
f 285/1/4 286/1/4 288/1/4
f 286/1/4 287/1/4 288/1/4
f 288/1/4 287/1/4 289/1/4
f 289/1/4 287/1/4 290/1/4
f 283/1/4 284/1/4 291/1/4
f 291/1/4 284/1/4 292/1/4
f 293/2/4 294/2/4 295/2/4
f 295/2/4 294/2/4 296/2/4
f 297/2/4 298/2/4 299/2/4
f 299/2/4 298/2/4 300/2/4
f 304/8/5 302/8/5 301/8/5
f 305/8/5 302/8/5 304/8/5
f 306/8/5 302/8/5 305/8/5
f 307/8/5 302/8/5 306/8/5
f 309/4/5 304/4/5 303/4/5
f 310/1/5 305/1/5 304/1/5
f 310/4/5 304/4/5 309/4/5
f 311/8/5 306/8/5 305/8/5
f 311/1/5 305/1/5 310/1/5
f 312/1/5 308/1/5 307/1/5
f 312/8/5 306/8/5 311/8/5
f 312/1/5 307/1/5 306/1/5
f 313/1/5 308/1/5 312/1/5
f 314/1/5 308/1/5 313/1/5
f 315/2/5 310/2/5 309/2/5
f 316/7/5 311/7/5 310/7/5
f 316/2/5 310/2/5 315/2/5
f 316/7/5 312/7/5 311/7/5
f 317/7/5 312/7/5 316/7/5
f 318/2/5 317/2/5 316/2/5
f 319/7/5 312/7/5 317/7/5
f 319/2/5 317/2/5 318/2/5
f 320/2/5 313/2/5 312/2/5
f 320/7/5 312/7/5 319/7/5
f 321/2/5 313/2/5 320/2/5
f 322/1/5 319/1/5 318/1/5
f 322/1/5 320/1/5 319/1/5
f 322/1/5 321/1/5 320/1/5
f 323/1/5 321/1/5 322/1/5
f 324/1/5 321/1/5 323/1/5
f 325/1/5 321/1/5 324/1/5
f 326/1/5 324/1/5 323/1/5
f 327/1/5 324/1/5 326/1/5
f 332/2/5 329/2/5 328/2/5
f 333/2/5 329/2/5 332/2/5
f 334/2/5 331/2/5 330/2/5
f 335/2/5 331/2/5 334/2/5
f 338/4/5 337/4/5 336/4/5
f 339/4/5 337/4/5 338/4/5
f 342/2/5 341/2/5 340/2/5
f 343/2/5 341/2/5 342/2/5
f 348/2/5 345/2/5 344/2/5
f 349/2/5 347/2/5 346/2/5
f 350/2/5 348/2/5 344/2/5
f 351/2/5 348/2/5 350/2/5
f 352/2/5 347/2/5 349/2/5
f 353/2/5 347/2/5 352/2/5
f 358/1/5 355/1/5 354/1/5
f 359/1/5 355/1/5 358/1/5
f 360/1/5 357/1/5 356/1/5
f 361/1/5 357/1/5 360/1/5
f 366/1/5 363/1/5 362/1/5
f 367/1/5 363/1/5 366/1/5
f 368/1/5 365/1/5 364/1/5
f 369/1/5 365/1/5 368/1/5
f 372/1/5 371/1/5 370/1/5
f 373/1/5 371/1/5 372/1/5
f 376/1/5 375/1/5 374/1/5
f 377/1/5 375/1/5 376/1/5
f 380/6/5 379/6/5 378/6/5
f 381/6/5 379/6/5 380/6/5
f 384/1/5 383/1/5 382/1/5
f 385/1/5 383/1/5 384/1/5
f 386/4/6 387/4/6 388/4/6
f 388/4/6 387/4/6 389/4/6
f 390/2/6 391/2/6 394/2/6
f 394/2/6 391/2/6 395/2/6
f 392/2/6 393/2/6 396/2/6
f 396/2/6 393/2/6 397/2/6
f 398/2/6 399/2/6 402/2/6
f 399/1/6 400/1/6 402/1/6
f 400/2/6 401/2/6 403/2/6
f 402/1/6 400/1/6 403/1/6
f 398/2/6 402/2/6 404/2/6
f 404/2/6 402/2/6 405/2/6
f 403/2/6 401/2/6 406/2/6
f 406/2/6 401/2/6 407/2/6
f 408/2/6 409/2/6 410/2/6
f 410/2/6 409/2/6 411/2/6
f 412/6/6 413/6/6 415/6/6
f 414/6/6 415/6/6 417/6/6
f 416/6/6 417/6/6 419/6/6
f 415/6/6 413/6/6 420/6/6
f 417/6/6 415/6/6 420/6/6
f 419/6/6 417/6/6 420/6/6
f 418/1/6 419/1/6 422/1/6
f 420/1/6 421/1/6 422/1/6
f 419/1/6 420/1/6 422/1/6
f 422/1/6 421/1/6 423/1/6
f 424/1/6 425/1/6 426/1/6
f 426/1/6 425/1/6 427/1/6
f 428/6/6 429/6/6 431/6/6
f 431/6/6 429/6/6 432/6/6
f 430/6/6 431/6/6 433/6/6
f 433/6/6 431/6/6 434/6/6
f 435/1/6 436/1/6 437/1/6
f 437/1/6 436/1/6 438/1/6
f 439/1/6 440/1/6 441/1/6
f 441/1/6 440/1/6 442/1/6
f 443/1/6 444/1/6 445/1/6
f 445/1/6 444/1/6 446/1/6
f 447/6/6 448/6/6 449/6/6
f 449/6/6 448/6/6 450/6/6
f 451/1/6 452/1/6 453/1/6
f 453/1/6 452/1/6 454/1/6
