# MagicaVoxel @ Ephtracy

# material
mtllib HeroSingle-01.mtl
usemtl palette

# normals
vn -1 0 0
vn 1 0 0
vn 0 0 1
vn 0 0 -1
vn 0 -1 0
vn 0 1 0

# texcoords
vt 0.408203 0.5
vt 0.439453 0.5
vt 0.533203 0.5
vt 0.564453 0.5
vt 0.595703 0.5
vt 0.603516 0.5
vt 0.626953 0.5
vt 0.658203 0.5

# verts
v -2.5 0 2
v -2.5 0 1
v -2.5 0 -0
v -2.5 1 2
v -2.5 1 1
v -2.5 2 1
v -2.5 2 -0
v -2.5 3 1
v -2.5 3 -0
v -2.5 3 -3
v -2.5 3 -4
v -2.5 4 2
v -2.5 4 1
v -2.5 4 -2
v -2.5 4 -3
v -2.5 4 -4
v -2.5 5 1
v -2.5 5 -0
v -2.5 5 -2
v -2.5 5 -3
v -2.5 6 -0
v -2.5 6 -2
v -1.5 0 5
v -1.5 0 2
v -1.5 0 -0
v -1.5 0 -2
v -1.5 0 -3
v -1.5 0 -5
v -1.5 0 -6
v -1.5 1 3
v -1.5 1 2
v -1.5 1 -3
v -1.5 1 -5
v -1.5 2 5
v -1.5 2 4
v -1.5 2 3
v -1.5 2 2
v -1.5 2 1
v -1.5 2 -0
v -1.5 2 -3
v -1.5 2 -6
v -1.5 3 5
v -1.5 3 4
v -1.5 3 2
v -1.5 3 1
v -1.5 3 -0
v -1.5 3 -2
v -1.5 3 -3
v -1.5 4 3
v -1.5 4 2
v -1.5 5 6
v -1.5 5 5
v -1.5 5 4
v -1.5 5 3
v -1.5 6 6
v -1.5 6 4
v -0.5 0 -3
v -0.5 0 -4
v -0.5 1 -3
v -0.5 1 -4
v 0.5 0 -5
v 0.5 0 -6
v 0.5 1 -4
v 0.5 1 -5
v 0.5 2 -4
v 0.5 2 -6
v -0.5 0 -5
v -0.5 0 -6
v -0.5 1 -4
v -0.5 1 -5
v -0.5 2 -4
v -0.5 2 -6
v -0.5 4 4
v -0.5 4 3
v -0.5 5 6
v -0.5 5 5
v -0.5 5 4
v -0.5 5 3
v -0.5 6 6
v -0.5 6 4
v 0.5 0 -3
v 0.5 0 -4
v 0.5 1 -3
v 0.5 1 -4
v 0.5 4 5
v 0.5 4 4
v 0.5 5 5
v 0.5 5 4
v 1.5 0 5
v 1.5 0 2
v 1.5 0 1
v 1.5 0 -2
v 1.5 0 -3
v 1.5 0 -5
v 1.5 0 -6
v 1.5 1 3
v 1.5 1 2
v 1.5 1 1
v 1.5 1 -0
v 1.5 1 -3
v 1.5 1 -5
v 1.5 2 5
v 1.5 2 4
v 1.5 2 3
v 1.5 2 2
v 1.5 2 1
v 1.5 2 -0
v 1.5 2 -3
v 1.5 2 -6
v 1.5 3 5
v 1.5 3 4
v 1.5 3 2
v 1.5 3 1
v 1.5 3 -0
v 1.5 3 -2
v 1.5 3 -3
v 1.5 4 5
v 1.5 4 2
v 2.5 0 2
v 2.5 0 1
v 2.5 1 3
v 2.5 1 2
v 2.5 1 1
v 2.5 1 -0
v 2.5 2 3
v 2.5 2 2
v 2.5 2 1
v 2.5 2 -0
v 2.5 3 1
v 2.5 3 -0
v 2.5 3 -3
v 2.5 3 -4
v 2.5 4 2
v 2.5 4 1
v 2.5 4 -2
v 2.5 4 -3
v 2.5 4 -4
v 2.5 5 1
v 2.5 5 -0
v 2.5 5 -2
v 2.5 5 -3
v 2.5 6 -0
v 2.5 6 -2
v -1.5 5 6
v -1.5 6 6
v -0.5 5 6
v -0.5 6 6
v -1.5 0 5
v -1.5 2 5
v -1.5 3 5
v -1.5 5 5
v -0.5 2 5
v -0.5 3 5
v -0.5 5 5
v 0.5 2 5
v 0.5 3 5
v 0.5 4 5
v 0.5 5 5
v 1.5 0 5
v 1.5 2 5
v 1.5 3 5
v 1.5 4 5
v 1.5 1 3
v 1.5 2 3
v 2.5 1 3
v 2.5 2 3
v -2.5 0 2
v -2.5 1 2
v -2.5 4 2
v -1.5 0 2
v -1.5 1 2
v -1.5 2 2
v -1.5 3 2
v -1.5 4 2
v 1.5 0 2
v 1.5 1 2
v 1.5 2 2
v 1.5 3 2
v 1.5 4 2
v 2.5 0 2
v 2.5 1 2
v 2.5 2 2
v 2.5 4 2
v -2.5 4 1
v -2.5 5 1
v 2.5 4 1
v 2.5 5 1
v -2.5 5 -0
v -2.5 6 -0
v 2.5 5 -0
v 2.5 6 -0
v -2.5 4 -2
v -2.5 5 -2
v 2.5 4 -2
v 2.5 5 -2
v -2.5 3 -3
v -2.5 4 -3
v -1.5 3 -3
v 1.5 3 -3
v 2.5 3 -3
v 2.5 4 -3
v -1.5 0 -5
v -1.5 1 -5
v -0.5 0 -5
v -0.5 1 -5
v 0.5 0 -5
v 0.5 1 -5
v 1.5 0 -5
v 1.5 1 -5
v -1.5 5 4
v -1.5 6 4
v -0.5 4 4
v -0.5 5 4
v -0.5 6 4
v 0.5 4 4
v 0.5 5 4
v -1.5 4 3
v -1.5 5 3
v -0.5 4 3
v -0.5 5 3
v -2.5 2 1
v -2.5 3 1
v -1.5 2 1
v -1.5 3 1
v 1.5 0 1
v 1.5 1 1
v 1.5 2 1
v 1.5 3 1
v 2.5 0 1
v 2.5 1 1
v 2.5 2 1
v 2.5 3 1
v -2.5 0 -0
v -2.5 2 -0
v -2.5 3 -0
v -2.5 5 -0
v -1.5 0 -0
v -1.5 2 -0
v -1.5 3 -0
v 1.5 1 -0
v 1.5 2 -0
v 1.5 3 -0
v 2.5 1 -0
v 2.5 2 -0
v 2.5 3 -0
v 2.5 5 -0
v -2.5 5 -2
v -2.5 6 -2
v 2.5 5 -2
v 2.5 6 -2
v -2.5 4 -3
v -2.5 5 -3
v -1.5 0 -3
v -1.5 1 -3
v -1.5 2 -3
v -1.5 3 -3
v -0.5 0 -3
v -0.5 1 -3
v -0.5 2 -3
v 0.5 0 -3
v 0.5 1 -3
v 0.5 2 -3
v 1.5 0 -3
v 1.5 1 -3
v 1.5 2 -3
v 1.5 3 -3
v 2.5 4 -3
v 2.5 5 -3
v -2.5 3 -4
v -2.5 4 -4
v -0.5 0 -4
v -0.5 1 -4
v -0.5 2 -4
v 0.5 0 -4
v 0.5 1 -4
v 0.5 2 -4
v 2.5 3 -4
v 2.5 4 -4
v -1.5 0 -6
v -1.5 2 -6
v -0.5 0 -6
v -0.5 2 -6
v 0.5 0 -6
v 0.5 2 -6
v 1.5 0 -6
v 1.5 2 -6
v -1.5 0 5
v 1.5 0 5
v -2.5 0 2
v -1.5 0 2
v -0.5 0 2
v 0.5 0 2
v 1.5 0 2
v 2.5 0 2
v -2.5 0 1
v -1.5 0 1
v -0.5 0 1
v 0.5 0 1
v 1.5 0 1
v 2.5 0 1
v -2.5 0 -0
v -1.5 0 -0
v -0.5 0 -0
v -1.5 0 -2
v -0.5 0 -2
v 0.5 0 -2
v 1.5 0 -2
v -1.5 0 -3
v -0.5 0 -3
v 0.5 0 -3
v 1.5 0 -3
v -0.5 0 -4
v 0.5 0 -4
v -1.5 0 -5
v -0.5 0 -5
v 0.5 0 -5
v 1.5 0 -5
v -1.5 0 -6
v -0.5 0 -6
v 0.5 0 -6
v 1.5 0 -6
v 1.5 1 3
v 2.5 1 3
v 1.5 1 2
v 2.5 1 2
v 1.5 1 1
v 2.5 1 1
v 1.5 1 -0
v 2.5 1 -0
v -1.5 1 -3
v -0.5 1 -3
v 0.5 1 -3
v 1.5 1 -3
v -0.5 1 -4
v 0.5 1 -4
v -1.5 1 -5
v -0.5 1 -5
v 0.5 1 -5
v 1.5 1 -5
v -2.5 3 1
v -1.5 3 1
v 1.5 3 1
v 2.5 3 1
v -2.5 3 -0
v -1.5 3 -0
v 1.5 3 -0
v 2.5 3 -0
v -2.5 3 -3
v -1.5 3 -3
v 1.5 3 -3
v 2.5 3 -3
v -2.5 3 -4
v 2.5 3 -4
v -2.5 4 -2
v 2.5 4 -2
v -2.5 4 -3
v 2.5 4 -3
v -1.5 5 6
v -0.5 5 6
v -1.5 5 5
v -0.5 5 5
v -2.5 5 -0
v 2.5 5 -0
v -2.5 5 -2
v 2.5 5 -2
v 1.5 2 3
v 2.5 2 3
v 1.5 2 2
v 2.5 2 2
v -2.5 2 1
v -1.5 2 1
v 1.5 2 1
v 2.5 2 1
v -2.5 2 -0
v -1.5 2 -0
v 1.5 2 -0
v 2.5 2 -0
v -1.5 2 -3
v -0.5 2 -3
v 0.5 2 -3
v 1.5 2 -3
v -0.5 2 -4
v 0.5 2 -4
v -1.5 2 -6
v -0.5 2 -6
v 0.5 2 -6
v 1.5 2 -6
v -1.5 3 -0
v 1.5 3 -0
v -1.5 3 -2
v 1.5 3 -2
v -1.5 3 -3
v 1.5 3 -3
v 0.5 4 5
v 1.5 4 5
v -0.5 4 4
v 0.5 4 4
v -1.5 4 3
v -0.5 4 3
v -2.5 4 2
v -1.5 4 2
v 1.5 4 2
v 2.5 4 2
v -2.5 4 1
v 2.5 4 1
v -2.5 4 -3
v 2.5 4 -3
v -2.5 4 -4
v 2.5 4 -4
v -0.5 5 5
v 0.5 5 5
v -1.5 5 4
v -0.5 5 4
v 0.5 5 4
v -1.5 5 3
v -0.5 5 3
v -2.5 5 1
v 2.5 5 1
v -2.5 5 -0
v 2.5 5 -0
v -2.5 5 -2
v 2.5 5 -2
v -2.5 5 -3
v 2.5 5 -3
v -1.5 6 6
v -0.5 6 6
v -1.5 6 4
v -0.5 6 4
v -2.5 6 -0
v 2.5 6 -0
v -2.5 6 -2
v 2.5 6 -2

# faces
f 4/4/1 2/4/1 1/4/1
f 5/2/1 3/2/1 2/2/1
f 5/4/1 2/4/1 4/4/1
f 6/1/1 5/1/1 4/1/1
f 6/2/1 3/2/1 5/2/1
f 7/2/1 3/2/1 6/2/1
f 8/1/1 6/1/1 4/1/1
f 12/1/1 9/1/1 8/1/1
f 12/1/1 8/1/1 4/1/1
f 13/1/1 9/1/1 12/1/1
f 15/1/1 11/1/1 10/1/1
f 16/1/1 11/1/1 15/1/1
f 17/1/1 9/1/1 13/1/1
f 18/1/1 9/1/1 17/1/1
f 19/1/1 15/1/1 14/1/1
f 20/1/1 15/1/1 19/1/1
f 21/1/1 19/1/1 18/1/1
f 22/1/1 19/1/1 21/1/1
f 30/8/1 24/8/1 23/8/1
f 31/8/1 24/8/1 30/8/1
f 32/1/1 27/1/1 26/1/1
f 33/2/1 29/2/1 28/2/1
f 34/8/1 30/8/1 23/8/1
f 35/8/1 30/8/1 34/8/1
f 36/6/1 31/6/1 30/6/1
f 36/8/1 30/8/1 35/8/1
f 37/6/1 31/6/1 36/6/1
f 39/2/1 26/2/1 25/2/1
f 40/1/1 32/1/1 26/1/1
f 40/2/1 33/2/1 32/2/1
f 41/2/1 29/2/1 33/2/1
f 41/2/1 33/2/1 40/2/1
f 42/3/1 35/3/1 34/3/1
f 43/1/1 37/1/1 36/1/1
f 43/3/1 35/3/1 42/3/1
f 43/1/1 36/1/1 35/1/1
f 44/1/1 37/1/1 43/1/1
f 45/2/1 39/2/1 38/2/1
f 46/2/1 26/2/1 39/2/1
f 46/2/1 39/2/1 45/2/1
f 47/1/1 40/1/1 26/1/1
f 47/2/1 26/2/1 46/2/1
f 48/1/1 40/1/1 47/1/1
f 49/6/1 44/6/1 43/6/1
f 49/6/1 43/6/1 42/6/1
f 50/6/1 44/6/1 49/6/1
f 52/6/1 49/6/1 42/6/1
f 53/6/1 49/6/1 52/6/1
f 54/6/1 49/6/1 53/6/1
f 55/6/1 52/6/1 51/6/1
f 55/6/1 53/6/1 52/6/1
f 56/6/1 53/6/1 55/6/1
f 59/1/1 58/1/1 57/1/1
f 60/1/1 58/1/1 59/1/1
f 64/2/1 62/2/1 61/2/1
f 65/2/1 64/2/1 63/2/1
f 66/2/1 62/2/1 64/2/1
f 66/2/1 64/2/1 65/2/1
f 67/2/2 68/2/2 70/2/2
f 69/2/2 70/2/2 71/2/2
f 70/2/2 68/2/2 72/2/2
f 71/2/2 70/2/2 72/2/2
f 73/6/2 74/6/2 77/6/2
f 77/6/2 74/6/2 78/6/2
f 75/6/2 76/6/2 79/6/2
f 76/6/2 77/6/2 79/6/2
f 79/6/2 77/6/2 80/6/2
f 81/1/2 82/1/2 83/1/2
f 83/1/2 82/1/2 84/1/2
f 85/6/2 86/6/2 87/6/2
f 87/6/2 86/6/2 88/6/2
f 89/8/2 90/8/2 96/8/2
f 96/8/2 90/8/2 97/8/2
f 91/2/2 92/2/2 98/2/2
f 98/2/2 92/2/2 99/2/2
f 92/1/2 93/1/2 100/1/2
f 94/2/2 95/2/2 101/2/2
f 89/8/2 96/8/2 102/8/2
f 102/8/2 96/8/2 103/8/2
f 103/8/2 96/8/2 104/8/2
f 99/2/2 92/2/2 107/2/2
f 92/1/2 100/1/2 108/1/2
f 100/2/2 101/2/2 108/2/2
f 101/2/2 95/2/2 109/2/2
f 108/2/2 101/2/2 109/2/2
f 102/3/2 103/3/2 110/3/2
f 104/1/2 105/1/2 111/1/2
f 110/3/2 103/3/2 111/3/2
f 103/1/2 104/1/2 111/1/2
f 111/1/2 105/1/2 112/1/2
f 106/2/2 107/2/2 113/2/2
f 107/2/2 92/2/2 114/2/2
f 113/2/2 107/2/2 114/2/2
f 92/1/2 108/1/2 115/1/2
f 114/2/2 92/2/2 115/2/2
f 115/1/2 108/1/2 116/1/2
f 111/6/2 112/6/2 117/6/2
f 110/6/2 111/6/2 117/6/2
f 117/6/2 112/6/2 118/6/2
f 119/1/2 120/1/2 122/1/2
f 122/1/2 120/1/2 123/1/2
f 121/4/2 122/4/2 125/4/2
f 123/2/2 124/2/2 126/2/2
f 125/4/2 122/4/2 126/4/2
f 122/2/2 123/2/2 126/2/2
f 126/2/2 124/2/2 127/2/2
f 127/2/2 124/2/2 128/2/2
f 126/1/2 127/1/2 129/1/2
f 129/1/2 130/1/2 133/1/2
f 126/1/2 129/1/2 133/1/2
f 133/1/2 130/1/2 134/1/2
f 131/1/2 132/1/2 136/1/2
f 136/1/2 132/1/2 137/1/2
f 134/1/2 130/1/2 138/1/2
f 138/1/2 130/1/2 139/1/2
f 135/1/2 136/1/2 140/1/2
f 140/1/2 136/1/2 141/1/2
f 139/1/2 140/1/2 142/1/2
f 142/1/2 140/1/2 143/1/2
f 146/6/3 145/6/3 144/6/3
f 147/6/3 145/6/3 146/6/3
f 152/8/3 149/8/3 148/8/3
f 152/3/3 150/3/3 149/3/3
f 153/6/3 151/6/3 150/6/3
f 153/3/3 150/3/3 152/3/3
f 154/6/3 151/6/3 153/6/3
f 155/8/3 152/8/3 148/8/3
f 155/1/3 153/1/3 152/1/3
f 156/6/3 154/6/3 153/6/3
f 156/1/3 153/1/3 155/1/3
f 157/6/3 154/6/3 156/6/3
f 158/6/3 154/6/3 157/6/3
f 159/8/3 155/8/3 148/8/3
f 160/3/3 156/3/3 155/3/3
f 160/8/3 155/8/3 159/8/3
f 161/6/3 157/6/3 156/6/3
f 161/3/3 156/3/3 160/3/3
f 162/6/3 157/6/3 161/6/3
f 165/4/3 164/4/3 163/4/3
f 166/4/3 164/4/3 165/4/3
f 170/4/3 168/4/3 167/4/3
f 171/1/3 169/1/3 168/1/3
f 171/4/3 168/4/3 170/4/3
f 172/1/3 169/1/3 171/1/3
f 173/1/3 169/1/3 172/1/3
f 174/1/3 169/1/3 173/1/3
f 180/1/3 176/1/3 175/1/3
f 181/1/3 176/1/3 180/1/3
f 182/1/3 179/1/3 178/1/3
f 182/1/3 178/1/3 177/1/3
f 183/1/3 179/1/3 182/1/3
f 186/1/3 185/1/3 184/1/3
f 187/1/3 185/1/3 186/1/3
f 190/1/3 189/1/3 188/1/3
f 191/1/3 189/1/3 190/1/3
f 194/1/3 193/1/3 192/1/3
f 195/1/3 193/1/3 194/1/3
f 198/1/3 197/1/3 196/1/3
f 199/1/3 197/1/3 198/1/3
f 200/1/3 197/1/3 199/1/3
f 201/1/3 197/1/3 200/1/3
f 204/2/3 203/2/3 202/2/3
f 205/2/3 203/2/3 204/2/3
f 208/2/3 207/2/3 206/2/3
f 209/2/3 207/2/3 208/2/3
f 210/6/4 211/6/4 213/6/4
f 213/6/4 211/6/4 214/6/4
f 212/6/4 213/6/4 215/6/4
f 215/6/4 213/6/4 216/6/4
f 217/6/4 218/6/4 219/6/4
f 219/6/4 218/6/4 220/6/4
f 221/1/4 222/1/4 223/1/4
f 223/1/4 222/1/4 224/1/4
f 225/1/4 226/1/4 229/1/4
f 229/1/4 226/1/4 230/1/4
f 227/1/4 228/1/4 231/1/4
f 231/1/4 228/1/4 232/1/4
f 233/2/4 234/2/4 237/2/4
f 237/2/4 234/2/4 238/2/4
f 235/1/4 236/1/4 239/1/4
f 239/1/4 236/1/4 242/1/4
f 240/2/4 241/2/4 243/2/4
f 243/2/4 241/2/4 244/2/4
f 242/1/4 236/1/4 245/1/4
f 245/1/4 236/1/4 246/1/4
f 247/1/4 248/1/4 249/1/4
f 249/1/4 248/1/4 250/1/4
f 253/1/4 254/1/4 257/1/4
f 257/1/4 254/1/4 258/1/4
f 255/1/4 256/1/4 259/1/4
f 259/1/4 256/1/4 262/1/4
f 260/1/4 261/1/4 263/1/4
f 263/1/4 261/1/4 264/1/4
f 262/1/4 256/1/4 265/1/4
f 265/1/4 256/1/4 266/1/4
f 251/1/4 252/1/4 267/1/4
f 267/1/4 252/1/4 268/1/4
f 271/1/4 272/1/4 274/1/4
f 272/1/4 273/1/4 274/1/4
f 274/1/4 273/1/4 275/1/4
f 275/1/4 273/1/4 276/1/4
f 269/1/4 270/1/4 277/1/4
f 277/1/4 270/1/4 278/1/4
f 279/2/4 280/2/4 281/2/4
f 281/2/4 280/2/4 282/2/4
f 283/2/4 284/2/4 285/2/4
f 285/2/4 284/2/4 286/2/4
f 290/8/5 288/8/5 287/8/5
f 291/8/5 288/8/5 290/8/5
f 292/8/5 288/8/5 291/8/5
f 293/8/5 288/8/5 292/8/5
f 295/4/5 290/4/5 289/4/5
f 296/1/5 291/1/5 290/1/5
f 296/4/5 290/4/5 295/4/5
f 297/8/5 292/8/5 291/8/5
f 297/1/5 291/1/5 296/1/5
f 298/1/5 294/1/5 293/1/5
f 298/8/5 292/8/5 297/8/5
f 298/1/5 293/1/5 292/1/5
f 299/1/5 294/1/5 298/1/5
f 300/1/5 294/1/5 299/1/5
f 301/2/5 296/2/5 295/2/5
f 302/7/5 297/7/5 296/7/5
f 302/2/5 296/2/5 301/2/5
f 302/7/5 298/7/5 297/7/5
f 303/7/5 298/7/5 302/7/5
f 304/2/5 303/2/5 302/2/5
f 305/7/5 298/7/5 303/7/5
f 305/2/5 303/2/5 304/2/5
f 306/2/5 299/2/5 298/2/5
f 306/7/5 298/7/5 305/7/5
f 307/2/5 299/2/5 306/2/5
f 308/1/5 305/1/5 304/1/5
f 308/1/5 306/1/5 305/1/5
f 308/1/5 307/1/5 306/1/5
f 309/1/5 307/1/5 308/1/5
f 310/1/5 307/1/5 309/1/5
f 311/1/5 307/1/5 310/1/5
f 312/1/5 310/1/5 309/1/5
f 313/1/5 310/1/5 312/1/5
f 318/2/5 315/2/5 314/2/5
f 319/2/5 315/2/5 318/2/5
f 320/2/5 317/2/5 316/2/5
f 321/2/5 317/2/5 320/2/5
f 324/4/5 323/4/5 322/4/5
f 325/4/5 323/4/5 324/4/5
f 328/2/5 327/2/5 326/2/5
f 329/2/5 327/2/5 328/2/5
f 334/2/5 331/2/5 330/2/5
f 335/2/5 333/2/5 332/2/5
f 336/2/5 334/2/5 330/2/5
f 337/2/5 334/2/5 336/2/5
f 338/2/5 333/2/5 335/2/5
f 339/2/5 333/2/5 338/2/5
f 344/1/5 341/1/5 340/1/5
f 345/1/5 341/1/5 344/1/5
f 346/1/5 343/1/5 342/1/5
f 347/1/5 343/1/5 346/1/5
f 352/1/5 349/1/5 348/1/5
f 352/1/5 351/1/5 350/1/5
f 352/1/5 350/1/5 349/1/5
f 353/1/5 351/1/5 352/1/5
f 356/1/5 355/1/5 354/1/5
f 357/1/5 355/1/5 356/1/5
f 360/6/5 359/6/5 358/6/5
f 361/6/5 359/6/5 360/6/5
f 364/1/5 363/1/5 362/1/5
f 365/1/5 363/1/5 364/1/5
f 366/4/6 367/4/6 368/4/6
f 368/4/6 367/4/6 369/4/6
f 370/2/6 371/2/6 374/2/6
f 374/2/6 371/2/6 375/2/6
f 372/2/6 373/2/6 376/2/6
f 376/2/6 373/2/6 377/2/6
f 378/2/6 379/2/6 382/2/6
f 379/1/6 380/1/6 382/1/6
f 380/2/6 381/2/6 383/2/6
f 382/1/6 380/1/6 383/1/6
f 378/2/6 382/2/6 384/2/6
f 384/2/6 382/2/6 385/2/6
f 383/2/6 381/2/6 386/2/6
f 386/2/6 381/2/6 387/2/6
f 388/2/6 389/2/6 390/2/6
f 390/2/6 389/2/6 391/2/6
f 390/1/6 391/1/6 392/1/6
f 392/1/6 391/1/6 393/1/6
f 394/6/6 395/6/6 397/6/6
f 396/6/6 397/6/6 399/6/6
f 398/6/6 399/6/6 401/6/6
f 397/6/6 395/6/6 402/6/6
f 399/6/6 397/6/6 402/6/6
f 401/6/6 399/6/6 402/6/6
f 400/1/6 401/1/6 404/1/6
f 402/1/6 403/1/6 404/1/6
f 401/1/6 402/1/6 404/1/6
f 404/1/6 403/1/6 405/1/6
f 406/1/6 407/1/6 408/1/6
f 408/1/6 407/1/6 409/1/6
f 410/6/6 411/6/6 413/6/6
f 413/6/6 411/6/6 414/6/6
f 412/6/6 413/6/6 415/6/6
f 415/6/6 413/6/6 416/6/6
f 417/1/6 418/1/6 419/1/6
f 419/1/6 418/1/6 420/1/6
f 421/1/6 422/1/6 423/1/6
f 423/1/6 422/1/6 424/1/6
f 425/6/6 426/6/6 427/6/6
f 427/6/6 426/6/6 428/6/6
f 429/1/6 430/1/6 431/1/6
f 431/1/6 430/1/6 432/1/6
